# xmcd
#
# Track frame offsets: 
#        150
#        15565
#        25409
#        40445
#        51380
#        64446
#        79727
#        96848
#        108902
#        119234
#        140203
#        152054
#
# Disc length: 2237 seconds
#
# Revision: 0
# Processed by: cddbd v1.5.2PL0 Copyright (c) Steve Scherf et al.
# Submitted via: ExactAudioCopyFreeDBPlugin 1.0
#
DISCID=b008bb0c
DTITLE=The Purple Hulls - Why We Sing
DYEAR=2015
DGENRE=Bluegrass
TTITLE0=Heaven Came Down
TTITLE1=No Doubt Salvation
TTITLE2=Carpenter
TTITLE3=Old Joe Clark
TTITLE4=Heart To Heart
TTITLE5=Welcome To West Texas
TTITLE6=Mind Of Its Own
TTITLE7=Ephesians 6
TTITLE8=River Of Jordan
TTITLE9=Basis Of Love
TTITLE10=Come Thou Fount Of Every Blessing
TTITLE11=Never Gonna Let Me Go
EXTD=
EXTT0=
EXTT1=
EXTT2=
EXTT3=
EXTT4=
EXTT5=
EXTT6=
EXTT7=
EXTT8=
EXTT9=
EXTT10=
EXTT11=
PLAYORDER=
